# xmcd CD database file
#
# Track frame offsets:
#	150
#	14555
#	34095
#	51095
#	64590
#	86542
#	101602
#	115062
#	132427
#	146157
#	168387
#	182977
#	198150
#	211815
#	227472
#	240360
#	255560
#	271012
#	292762
#	310260
#
# Disc length: 4332 seconds
#
# Revision: 7
# Processed by: cddbd v1.5.2PL0 Copyright (c) Steve Scherf et al.
# Submitted via: CDex 1.70beta3
#
DISCID=0f10ea14
DTITLE=懐かしのアニメ主題歌集 - [Disc 1]
DYEAR=1998
DGENRE=Anime
TTITLE0=マクロス[超時空要塞マクロス
TTITLE1=背中ごしにセンチメンタル
TTITLE2=アンディ/失われた伝説を求めて[機甲創世記モスピーダ OP1]
TTITLE3=藤井健/ゴーショーグン発進せよ[戦国魔神ゴーショーグン OP1]
TTITLE4=西松一博 by ARAGON/飛翔 (NEVER END)[クラッシャージョウ MVED]
TTITLE5=TAKU/輝く瞳 (BRIGHT EYES)[巨神ゴーグ OP1]
TTITLE6=宮内良/黄金戦士ゴールド・ライタン[ゴールド・ライタン OP1]
TTITLE7=WELCOME/地球にI Love You[特装機兵ドルバック OP1]
TTITLE8=片桐圭一/亜空大作戦のテーマ[亜空大作戦のテーマ OP1]
TTITLE9=宮里久美/秘密く・だ・さ・い[メガゾーン23PART II 秘密く・だ・さ・い VDED]
TTITLE10=伊藤さやか/恋の呪文はスキトキメキトキス[さすがの猿飛 OP1]
TTITLE11=加茂晴美/ときめきトゥナイト[ときめきトゥナイト OP1]
TTITLE12=小山茉美/ラブ・ラブ・ミンキーモモ[魔法のプリンセスミンキーモモ OP1]
TTITLE13=井上望/おはようスパンク[おはよう!スパンク OP1]
TTITLE14=今田裕子/私はマチコ[私はマチコ OP1]
TTITLE15=山本まさゆき/ヤッターマンの歌[ヤッターマンの歌 OP1]
TTITLE16=高橋みゆき/オレンジのダンシング[ななこSOS OP1]
TTITLE17=岡本舞子/見知らぬ国のトリッパー[魔法の妖精ペルシャ OP1]
TTITLE18=山本百合子/忘れられたメッセージ[レディジョージィ OP1]
TTITLE19=加橋かつみ/ニルスのふしぎな旅[ニルスのふしぎな旅 OP1]
EXTD=YEAR: 1998
EXTT0=
EXTT1=
EXTT2=
EXTT3=
EXTT4=
EXTT5=
EXTT6=
EXTT7=
EXTT8=
EXTT9=
EXTT10=
EXTT11=
EXTT12=
EXTT13=
EXTT14=
EXTT15=
EXTT16=
EXTT17=
EXTT18=
EXTT19=
PLAYORDER=
